<?xml version="1.0" standalone="no"?>
<!DOCTYPE svg PUBLIC "-//W3C//DTD SVG 20010904//EN"
 "http://www.w3.org/TR/2001/REC-SVG-20010904/DTD/svg10.dtd">
<svg version="1.0" xmlns="http://www.w3.org/2000/svg"
 width="1769.000000pt" height="681.000000pt" viewBox="0 0 1769.000000 681.000000"
 preserveAspectRatio="xMidYMid meet">
<metadata>
Created by potrace 1.11, written by Peter Selinger 2001-2013
</metadata>
<g transform="translate(0.000000,681.000000) scale(0.100000,-0.100000)"
fill="#000000" stroke="none">
<path d="M0 3405 l0 -3405 8845 0 8845 0 0 3405 0 3405 -8845 0 -8845 0 0
-3405z m7422 2830 c-109 -28 -260 -97 -346 -159 -146 -104 -303 -289 -384
-451 -119 -240 -175 -581 -152 -927 21 -312 92 -551 222 -750 183 -280 405
-438 713 -508 l80 -18 -382 -1 -383 -1 0 -1435 0 -1435 -123 0 -122 0 -510
1440 -509 1440 -339 0 -338 0 -13 -32 c-11 -26 -948 -2647 -1003 -2806 l-15
-42 -129 0 -129 0 0 1440 0 1440 -434 0 -434 0 -15 -62 c-326 -1432 -503
-2185 -509 -2171 -7 15 -518 2217 -518 2229 0 2 -198 4 -440 4 l-440 0 0
-1440 0 -1440 -110 0 -110 0 0 2855 0 2855 3483 0 3482 -1 -93 -24z m1955
-2107 c-4 -1172 -7 -2457 -7 -2855 l0 -723 -115 0 -115 0 0 25 c0 16 -16 40
-43 68 -74 73 -78 95 -88 472 -4 182 -13 353 -19 380 -40 193 -126 310 -282
386 -27 13 -48 25 -48 28 0 4 33 22 73 40 106 51 211 158 265 271 156 325 107
686 -130 946 -143 156 -303 221 -597 245 -133 10 -191 19 -130 19 45 0 212 50
294 89 206 97 385 266 510 486 145 255 214 628 186 1002 -32 422 -147 700
-385 938 -154 154 -290 234 -492 289 l-89 25 609 0 609 1 -6 -2132z m2793
-723 l0 -2855 -127 0 -128 0 -510 697 c-280 383 -559 764 -619 846 l-109 149
586 586 c323 323 587 590 587 595 0 4 -173 7 -384 7 l-384 0 -553 -591 -554
-591 -3 64 c-2 34 -1 527 3 1095 l7 1031 407 5 c371 4 415 6 505 26 364 81
559 263 631 591 22 102 31 402 15 511 -24 167 -86 315 -177 427 -78 95 -239
196 -383 239 l-75 22 633 0 632 1 0 -2855z m2430 1558 c0 -714 3 -1470 7
-1680 l6 -383 429 0 428 0 0 -1175 0 -1175 -555 0 -555 0 -2 253 -3 252 -797
3 -798 2 0 365 0 365 700 0 700 0 0 255 0 255 -700 0 -700 0 0 300 0 300 798
2 797 3 0 510 0 510 -797 3 -798 2 0 365 0 365 700 0 700 0 0 255 0 255 -700
0 -700 0 0 300 0 300 798 2 797 3 3 243 2 242 120 0 120 0 0 -1297z m1780 310
c0 -828 -2 -984 -13 -968 -20 30 -1097 1922 -1103 1940 -5 13 58 15 555 15
l561 0 0 -987z m760 -1868 l0 -2855 -530 0 -530 0 0 1175 0 1175 430 0 430 0
0 1680 0 1680 100 0 100 0 0 -2855z m-9100 2370 c102 -31 191 -85 271 -165
124 -123 196 -272 236 -490 24 -134 23 -429 -2 -560 -47 -247 -144 -428 -289
-537 -124 -92 -215 -123 -386 -130 -107 -5 -139 -2 -210 16 -377 94 -579 458
-557 1006 13 324 100 553 270 712 78 73 198 135 302 158 89 19 286 14 365 -10z
m2653 -14 c130 -36 211 -116 243 -241 24 -93 15 -273 -16 -354 -43 -112 -145
-190 -280 -216 -29 -6 -189 -10 -356 -10 l-304 0 0 420 0 420 323 0 c285 0
330 -2 390 -19z m5057 -1331 c304 -531 560 -975 568 -987 l14 -23 -581 0 -581
0 0 1007 c0 850 2 1004 14 988 7 -11 262 -454 566 -985z m-14150 -2680 c143
-641 263 -1173 266 -1182 5 -17 -12 -18 -265 -18 l-271 0 1 1193 c0 655 2
1188 4 1182 3 -5 122 -534 265 -1175z m1400 -10 l0 -1190 -271 0 c-253 0 -271
1 -267 18 2 9 123 545 269 1190 145 644 265 1172 266 1172 2 0 3 -535 3 -1190z
m5269 1146 c40 -13 70 -33 111 -74 80 -80 95 -128 95 -297 0 -115 -3 -136 -23
-180 -28 -60 -73 -110 -127 -138 -88 -45 -129 -49 -547 -54 l-398 -5 0 387 0
386 418 -3 c369 -3 423 -6 471 -22z m-2910 -679 c95 -298 176 -548 178 -554 4
-10 -73 -13 -362 -13 -319 0 -366 2 -362 15 4 8 86 257 184 555 97 297 180
540 183 540 3 0 83 -244 179 -543z m5316 -997 c219 -311 413 -586 432 -612
l35 -48 -586 0 -586 0 0 482 0 483 142 142 c110 111 145 140 154 130 6 -6 190
-266 409 -577z m-2470 423 c147 -56 195 -173 195 -485 1 -205 16 -393 39 -493
12 -48 21 -91 21 -96 0 -5 -218 -9 -540 -9 l-540 0 0 556 0 555 383 -3 c368
-3 384 -4 442 -25z m-2409 -788 c51 -159 94 -291 94 -292 0 -2 -324 -3 -721
-3 -573 0 -720 3 -717 13 3 6 47 139 99 295 l94 282 528 -2 528 -3 95 -290z"/>
</g>
</svg>
